<?xml version="1.0" standalone="no"?><!DOCTYPE svg PUBLIC "-//W3C//DTD SVG 1.1//EN" "http://www.w3.org/Graphics/SVG/1.1/DTD/svg11.dtd"><svg t="1714056669770" class="icon" viewBox="0 0 1024 1024" version="1.1" xmlns="http://www.w3.org/2000/svg" p-id="8435" xmlns:xlink="http://www.w3.org/1999/xlink" width="64" height="64"><path d="M542.72 568.32m-364.373333 0a364.373333 364.373333 0 1 0 728.746666 0 364.373333 364.373333 0 1 0-728.746666 0Z" fill="#FCDDEB" p-id="8436"></path><path d="M979.626667 303.36A512.682667 512.682667 0 0 0 512 0C215.893333 0 8.106667 264.533333 0.426667 511.146667c-4.266667 135.253333 54.613333 241.493333 95.146666 298.24L42.24 980.48a24.448 24.448 0 0 0 31.146667 30.293333l179.2-62.293333C334.933333 998.4 422.4 1024 512 1024c282.453333 0 512-229.546667 512-512 0-72.533333-14.933333-142.933333-44.373333-208.64zM512 975.36c-84.053333 0-165.973333-24.746667-243.626667-74.24a23.594667 23.594667 0 0 0-12.8-3.84c-2.56 0-5.546667 0.426667-8.106666 1.28l-144.64 50.346667 42.666666-136.533334c2.133333-7.68 0.853333-15.786667-3.84-21.76-36.693333-48.213333-96.853333-148.48-93.013333-277.76C55.04 318.293333 219.733333 48.64 512 48.64c182.613333 0 348.586667 107.52 423.253333 274.346667 26.453333 59.733333 40.106667 123.306667 40.106667 189.013333 0 255.573333-207.786667 463.36-463.36 463.36z m113.066667-593.066667c-57.6 0-104.106667 46.506667-104.106667 104.106667v0c0-57.6-46.506667-104.106667-104.106667-104.106667a103.978667 103.978667 0 0 0-92.16 152.32c42.666667 96 197.12 177.493333 197.12 177.493334s207.786667-109.653333 207.786667-224.426667v-1.28a104.618667 104.618667 0 0 0-104.533333-104.106667z" fill="#F3A9C9" p-id="8437"></path></svg>