<?xml version="1.0" standalone="no"?><!DOCTYPE svg PUBLIC "-//W3C//DTD SVG 1.1//EN" "http://www.w3.org/Graphics/SVG/1.1/DTD/svg11.dtd"><svg t="1710479191745" class="icon" viewBox="0 0 1024 1024" version="1.1" xmlns="http://www.w3.org/2000/svg" p-id="17498" width="128" height="128" xmlns:xlink="http://www.w3.org/1999/xlink"><path d="M573.844837 566.772093m-343.07969 0a343.07969 343.07969 0 1 0 686.15938 0 343.07969 343.07969 0 1 0-686.15938 0Z" fill="#FFCB01" p-id="17499"></path><path d="M512.365147 753.711628c-14.923411 0-26.997085 12.105426-26.997085 27.028837v27.084403a27.028837 27.028837 0 0 0 26.989147 27.005023 27.068527 27.068527 0 0 0 27.100279-27.005023v-27.084403a27.052651 27.052651 0 0 0-27.092341-27.028837zM712.402357 566.541891L539.465426 492.432868V212.737984a27.108217 27.108217 0 0 0-27.092341-27.092341 27.068527 27.068527 0 0 0-26.997085 27.092341v297.515659c0 10.811535 6.437705 20.654636 16.415752 24.861768l189.32093 81.150015a27.306667 27.306667 0 0 0 10.621023 2.20676c10.486078 0 20.55938-6.191628 24.89352-16.391938a27.092341 27.092341 0 0 0-14.208992-35.538357zM755.823132 510.253643c0 14.915473 12.16893 27.060589 27.092341 27.06059h27.028837a27.052651 27.052651 0 0 0 27.028837-27.068528 27.044713 27.044713 0 0 0-27.028837-27.052651h-27.028837a27.124093 27.124093 0 0 0-27.092341 27.060589zM241.910078 483.216868H214.88124a27.068527 27.068527 0 0 0-27.060589 27.036775 27.068527 27.068527 0 0 0 27.068527 27.028838h27.0209a27.100279 27.100279 0 0 0 27.100279-27.028838 27.100279 27.100279 0 0 0-27.100279-27.036775z" p-id="17500"></path><path d="M512.396899 74.005829C271.637829 74.005829 76.125271 269.486636 76.125271 510.245705c0 240.774946 195.512558 436.247814 436.279566 436.247814s436.208124-195.472868 436.208124-436.247814c0-240.75907-195.441116-436.239876-436.208124-436.239876z m0 63.503876c205.752558 0 372.751876 167.015194 372.751876 372.736 0 205.728744-166.999318 372.736-372.751876 372.736-205.752558 0-372.743938-167.015194-372.743938-372.736 0-205.712868 166.999318-372.736 372.743938-372.736z" p-id="17501"></path></svg>